<?xml version="1.0" encoding="utf-8"?><svg fill="none" viewBox="0 0 300 274" xmlns="http://www.w3.org/2000/svg" xmlns:xlink="http://www.w3.org/1999/xlink"><defs><clipPath id="cp-300-274"><rect height="274" width="300" y="0" x="0" /></clipPath><g id="comp_0"><g transform="matrix(1,0,0,1,152.293,57.286)" id="Layer 2 Outlines"><g id="Group 4" transform="matrix(1,0,0,1,38.795,86.458)"><path fill="#7357F6" fill-opacity="1" d="M-9.416,-64.498L32.065,34.669C34.812,45.903,24.299,58.182,13.173,61.34C2.047,64.498,-9.584,58.289,-13.15,47.286C-15.485,40.084,-20.398,28.648,-25.369,17.921C-27.785,12.706,-30.095,7.919,-31.914,4.258C-33.398,1.272,-34.29,-0.419,-34.63,-1.063C-34.765,-1.316,-34.812,-1.407,-34.777,-1.352L-20.997,-9.436L-30.305,-55.905L-9.416,-64.498Z" /></g><g id="Group 3" transform="matrix(1,0,0,1,13.397,15.127)"><path fill="#ffdcb6" fill-opacity="1" d="M8.024,-2.688C5.888,-6.202,5.175,-10.804,-3.368,-14.165C-5.178,-14.877,-5.201,-13.326,-5.774,-13.594C-7.418,-14.36,-7.306,-13.606,-8.531,-12.921C-9.019,-12.648,-12.449,-11.969,-11.352,-10.797C-8.723,-7.987,-5.43,-2.254,-6.585,1.807C-6.714,2.262,-6.814,2.662,-6.901,3.039C-8.598,2.439,-13.148,1.054,-12.066,3.895C-10.948,6.831,-5.222,10.6,-3.47,11.7C-1.346,14.877,-0.916,13.751,-0.916,13.751L13.148,7.903C12.045,5.006,9.794,0.228,8.024,-2.688Z" ><animateTransform attributeName="transform" type="scale" additive="sum" dur="2.4s" repeatCount="indefinite" calcMode="spline" values="1 1; 0.985 1.012; 1.008 0.99; 0.992 1.008; 1 1" keyTimes="0; 0.22; 0.45; 0.68; 1" keySplines="0.333 0 0.667 1; 0.333 0 0.667 1; 0.333 0 0.667 1; 0.333 0 0.667 1" /></path></g><g id="Group 2" transform="matrix(1,0,0,1,17.085,14.31)"><path fill="#f5cda1" fill-opacity="1" d="M-9.461,-12.777C-9.461,-12.777,-8.865,-14.06,-7.055,-13.348C1.489,-9.987,2.2,-5.385,4.336,-1.871C6.105,1.044,8.356,5.823,9.461,8.72L-4.244,14.06C-4.244,14.06,-1.191,8.907,-1.796,3.001C-2.151,-0.463,-2.143,-5.007,-5.892,-9.989C-6.838,-11.248,-9.461,-12.777,-9.461,-12.777Z" ><animateTransform attributeName="transform" type="scale" additive="sum" dur="2.4s" begin="0.08s" repeatCount="indefinite" calcMode="spline" values="1 1; 0.988 1.01; 1.006 0.992; 0.994 1.006; 1 1" keyTimes="0; 0.22; 0.45; 0.68; 1" keySplines="0.333 0 0.667 1; 0.333 0 0.667 1; 0.333 0 0.667 1; 0.333 0 0.667 1" /></path></g><g id="Group 1" transform="matrix(1,0,0,1,32.777,118.905)"><path stroke-linejoin="miter" stroke-linecap="round" stroke-width="1" stroke-opacity="1" stroke="#ffffff" d="M-8.583,-26.722C-1.75,-5.722,7.383,22.322,8.583,26.722" /></g></g></g></defs><g transform="matrix(1,0,0,1,150,137)" id="Shape Layer 1"><g id="Rectangle 1" transform="matrix(1,0,0,1,1,3.5)"><rect height="282" width="301" y="0" x="0" fill="#ffffff" fill-opacity="1" /></g></g><g transform="matrix(1,0,0,1,14.306,22.923)" id="Layer 1 Outlines"><g id="Group 65" transform="matrix(1,0,0,1,130.99,120.086)"><path fill="#F7F5FF" fill-opacity="1" d="M-9.136,106.432C-42.046,110.087,-99.394,88.649,-115.626,56.32C-123.598,40.44,-127.496,9.287,-116.252,-15.107C-105.008,-39.501,-78.077,-43.881,-67.083,-44.692C-46.224,-46.231,-33.833,-48.968,-7.748,-68.608C18.338,-88.247,43.57,-110.087,81.335,-102.562C119.101,-95.038,127.496,-44.887,126.526,-17.748C125.556,9.391,113.858,39.739,89.668,56.328C65.479,72.915,23.775,102.776,-9.136,106.432Z" /></g><g id="Group 63" transform="matrix(1,0,0,1,130.274,160.74)"><path fill="#7357F6" fill-opacity="1" d="M-61.271,-7.62C-61.271,-7.62,-52.998,-36.956,-47.408,-47.392C-41.43,-58.553,-31.837,-55.491,-23.686,-60.849C-11.538,-68.837,6.726,-66.428,19.359,-66.428C24.669,-66.428,24.933,-62.654,29.372,-61.522C43.949,-57.805,56.721,-60.063,59.89,-33.127C61.272,-21.37,44.921,19.837,44.921,19.837L41.921,47.837C41.921,47.837,14.421,63.837,-6.079,66.337C-26.579,68.837,-25.969,62.211,-40.139,60.193C-54.309,58.173,-61.271,41.837,-61.271,41.837L-61.271,-7.62Z" /></g><g id="Group 62" transform="matrix(1,0,0,1,17.838,201.427)"><path stroke-linejoin="miter" stroke-linecap="round" stroke-width="1.787" stroke-opacity="1" stroke="#EFEAFF" d="M-16.945,-23.939C-16.945,-23.939,-8.675,3.389,16.945,23.939" /></g><g id="Group 61" transform="matrix(1,0,0,1,123.152,46.852)"><path fill="#312A45" fill-opacity="1" d="M26.829,14.961C26.829,14.961,30.794,6.745,29.343,-0.52C27.892,-7.785,28.97,-11.801,24.402,-16.121C19.834,-20.441,16.237,-19.291,14.576,-19.291C14.576,-19.291,12.944,-26.398,5.174,-28.711C-2.596,-31.023,-10.269,-26.09,-14.826,-21.565C-19.383,-17.04,-24.716,-16.121,-26.09,-11.483C-27.464,-6.845,-30.795,-3.457,-29.897,-1.27C-28.999,0.918,-29.678,5.671,-28.78,8.537C-27.882,11.403,-26.09,14.961,-26.09,14.961L-18.167,31.023L14.576,29.897C14.576,29.897,20.071,27.739,22.241,25.095C24.41,22.45,26.829,14.961,26.829,14.961Z" /></g><g id="Group 60" transform="matrix(1,0,0,1,124.307,70.938)"><path fill="#ffdcb6" fill-opacity="1" d="M-21.314,-24.67C-21.314,-24.67,-20.415,-32.954,-13.835,-32.954L3.804,-32.954C16.087,-32.954,9.921,-18.752,12.222,-16.347C14.403,-14.067,14.403,-9.255,12.6,-2.507C12.477,-2.048,13.144,-0.675,14.001,-2.507C14.235,-3.01,14.685,-6.289,14.685,-6.289C14.685,-6.289,17.785,-8.607,20.574,-6.289C23.363,-3.971,18.318,2.801,14.685,1.191C14.685,1.191,14.685,15.414,18.402,23.373C18.402,23.373,8.917,32.093,4.34,32.543C0.176,32.954,-6.27,28.312,-10.225,26.363L-10.225,18.215C-10.225,18.215,-15.895,17.428,-19.629,13.167C-23.363,8.908,-23.363,-4.674,-23.077,-16.747L-21.314,-24.67Z" /></g><g id="Group 59" transform="matrix(1,0,0,1,129.878,103.146)"><path fill="#F2EEFF" fill-opacity="1" d="M-15.697,-6.945L-10.243,-2.149C-10.243,-2.149,-5.337,-2.176,-2.087,-0.432C-2.087,-0.432,9.452,-4.022,12.274,-9.313L10.822,-14.568C10.822,-14.568,21.18,-13.895,19.065,-3.933C17.979,1.177,13.473,7.115,9.73,11.339C6.87,14.568,1.954,14.449,-1.068,11.37L-5.366,6.99L-13.679,10.715C-15.886,11.704,-18.447,10.522,-18.994,8.165C-20.018,3.754,-21.181,-2.779,-19.936,-5.71C-18.738,-8.529,-15.796,-10.452,-15.796,-10.452L-15.697,-6.945Z" /></g><g id="Group 58" transform="matrix(1,0,0,1,90.136,161.64)"><path stroke-linejoin="miter" stroke-linecap="round" stroke-width="1" stroke-opacity="1" stroke="#ffffff" d="M1.35,-20.885C1.35,-20.885,-1.35,5.85,-1.35,20.885" /></g><g id="Group 57" transform="matrix(1,0,0,1,124.998,91.884)"><path fill="#f5cda1" fill-opacity="1" d="M-10.915,-2.731C-10.915,-2.731,-0.371,-2.745,5.272,-7.559C10.915,-12.372,9.835,-6.363,6.327,-1.208C2.819,3.947,4.415,10.576,4.415,10.576C4.415,10.576,-6.101,12.372,-10.915,5.418L-10.915,-2.731Z" /></g><g id="Group 56" transform="matrix(1,0,0,1,118.239,81.875)"><path fill="#312A45" fill-opacity="1" d="M-13.546,-2.361C-13.546,-2.361,-14.468,-2.632,-15.269,-3.564C-16.071,-4.497,-16.327,-5.596,-16.327,-5.596C-16.327,-5.596,-16.78,-0.585,-15.069,1.904C-13.358,4.393,-12.1,9.999,-4.156,9.999C3.787,9.999,10.836,6.353,13.413,3.714C15.99,1.075,16.78,-5.23,16.78,-5.23C16.78,-5.23,10.743,1.075,8.657,-1.463C6.572,-4,0.373,-9.955,-5.841,-8.392C-5.841,-8.392,-10.132,-9.999,-11.387,-7.759C-12.642,-5.519,-13.546,-2.361,-13.546,-2.361Z" /></g><g id="Group 55" transform="matrix(1,0,0,1,114.233,77.733)"><path fill="#f5cda1" fill-opacity="1" d="M-4.658,1.43C-5.695,0.659,-5.549,-0.734,-3.833,-1.549C-2.117,-2.363,2.698,-1.621,4.058,-0.878C5.418,-0.134,5.695,1.292,5.418,1.828C5.14,2.364,-3.62,2.202,-4.658,1.43Z" /></g><g id="Group 54" transform="matrix(1,0,0,1,124.659,28.105)"><path stroke-linejoin="miter" stroke-linecap="round" stroke-width="1" stroke-opacity="1" stroke="#ffffff" d="M9.314,2.551C9.314,2.551,5.036,-2.551,0.049,-2.551C-4.938,-2.551,-9.314,0.001,-9.314,0.001" /></g><g id="Group 53" transform="matrix(1,0,0,1,90.747,218.66)"><path fill="#E6E0F7" fill-opacity="1" d="M-52.785,1.736C-55.632,3.637,-54.285,8.076,-50.862,8.076L22.297,8.076C22.78,8.076,23.259,7.973,23.702,7.777L55.632,-6.419L-37.008,-8.064C-37.714,-8.076,-38.407,-7.872,-38.993,-7.481L-52.785,1.736Z" /></g><g id="Group 52" transform="matrix(1,0,0,1,63.235,193.344)"><path fill="#F2EFFF" fill-opacity="1" d="M-54.02,-25.109C-55.531,-29.319,-52.411,-33.755,-47.938,-33.755L28.343,-33.755C31.07,-33.755,33.504,-32.044,34.425,-29.476L54.021,25.11C55.531,29.32,52.412,33.755,47.938,33.755L-28.343,33.755C-31.07,33.755,-33.504,32.042,-34.425,29.476L-54.02,-25.109Z" /></g><g id="Group 51" transform="matrix(1,0,0,1,62.955,195.525)"><path fill="#ffffff" fill-opacity="1" d="M0,-5.881C3.248,-5.881,5.88,-3.248,5.88,0C5.88,3.247,3.248,5.88,0,5.88C-3.248,5.88,-5.88,3.247,-5.88,0C-5.88,-3.248,-3.248,-5.881,0,-5.881Z" /></g><g id="Group 50" transform="matrix(1,0,0,1,227.875,148.497)"><path fill="#48C774" fill-opacity="1" d="M-6.378,17.453C-9.066,17.296,-12.688,14.596,-11.732,11.344C-10.776,8.092,-6.704,10.584,-8.439,5.891C-10.173,1.199,-11.303,0.42,-7.153,-3.157C-3.004,-6.734,-4.216,-4.82,-3.044,-8.442C-1.873,-12.063,-3.004,-13.638,-0.23,-16.154C2.544,-18.67,5.582,-12.718,4.452,-10.193C3.322,-7.666,6.577,-6.493,7.947,-3.157C9.317,0.179,4.614,1.765,6.967,4.739C9.317,7.712,12.688,5.98,12.688,12.04C12.688,18.099,1.39,18.67,-6.378,17.453Z" /></g><g id="Group 49" transform="matrix(1,0,0,1,228.374,155.796)"><path stroke-linejoin="miter" stroke-linecap="round" stroke-width="0.5" stroke-opacity="1" stroke="#D9F7E2" d="M-0.099,-13.057L0.1,13.058" /></g><g id="Group 48" transform="matrix(1,0,0,1,228.474,181.665)"><path fill="#F9A8EA" fill-opacity="1" d="M-13.5,-11.406L13.5,-11.406L9.785,8.944C9.524,10.369,8.282,11.406,6.834,11.406L-6.835,11.406C-8.284,11.406,-9.526,10.369,-9.786,8.944L-13.5,-11.406Z" /></g><g id="Group 47" transform="matrix(1,0,0,1,228.474,170.736)"><path fill="#F45BD4" fill-opacity="1" d="M-12,-3L12,-3C13.656,-3,15,-1.657,15,0C15,1.656,13.656,3,12,3L-12,3C-13.657,3,-15,1.656,-15,0C-15,-1.657,-13.657,-3,-12,-3Z" /></g><g id="Group 46" transform="matrix(1,0,0,1,45.81,110.575)"><path fill="#E9E3FF" fill-opacity="1" d="M-8.676,-2.067C-9.814,-1.41,-11.269,-1.799,-11.926,-2.937C-12.583,-4.075,-12.194,-5.531,-11.055,-6.188L2.524,-14.028C2.974,-14.287,3.549,-14.134,3.808,-13.684L5.778,-10.273L12.22,0.885C12.583,1.513,12.367,2.315,11.739,2.678L4.849,-9.256C4.701,-9.513,4.373,-9.601,4.117,-9.453L-8.676,-2.067ZM2.711,0.7C2.054,-0.438,0.606,-0.832,-0.523,-0.18C-1.652,0.472,-2.034,1.923,-1.377,3.061C-0.72,4.199,0.727,4.593,1.856,3.941C2.985,3.289,3.368,1.838,2.711,0.7ZM-3.029,12.473C-2.247,13.827,-0.518,14.287,0.837,13.504L10.648,7.84C12.003,7.058,12.467,5.326,11.685,3.971L5.872,-6.097C5.09,-7.451,3.358,-7.916,2.004,-7.134L-7.396,-1.707C-8.828,-0.88,-9.391,-0.555,-10.737,-0.877L-3.029,12.473Z" /></g><g id="Group 45" transform="matrix(1,0,0,1,164.195,175.577)"><path fill="#5F3FE8" fill-opacity="1" d="M0,-1.5C0.828,-1.5,1.5,-0.828,1.5,0C1.5,0.828,0.828,1.5,0,1.5C-0.828,1.5,-1.5,0.828,-1.5,0C-1.5,-0.828,-0.828,-1.5,0,-1.5Z" /></g><g id="Group 44" transform="matrix(1,0,0,1,167.639,170.91)"><path fill="#5F3FE8" fill-opacity="1" d="M0,-1.5C0.828,-1.5,1.5,-0.828,1.5,0C1.5,0.829,0.828,1.5,0,1.5C-0.828,1.5,-1.5,0.829,-1.5,0C-1.5,-0.828,-0.828,-1.5,0,-1.5Z" /></g><g id="Group 43" transform="matrix(1,0,0,1,161.195,169.577)"><path fill="#5F3FE8" fill-opacity="1" d="M0,-1.5C0.828,-1.5,1.5,-0.828,1.5,0C1.5,0.828,0.828,1.5,0,1.5C-0.828,1.5,-1.5,0.828,-1.5,0C-1.5,-0.828,-0.828,-1.5,0,-1.5Z" /></g><g id="Group 42" transform="matrix(1,0,0,1,155.195,169.577)"><path fill="#5F3FE8" fill-opacity="1" d="M0,-1.5C0.828,-1.5,1.5,-0.828,1.5,0C1.5,0.828,0.828,1.5,0,1.5C-0.828,1.5,-1.5,0.828,-1.5,0C-1.5,-0.828,-0.828,-1.5,0,-1.5Z" /></g><g id="Group 41" transform="matrix(1,0,0,1,94.195,111.577)"><path fill="#8066FF" fill-opacity="1" d="M0,-1.5C0.829,-1.5,1.5,-0.829,1.5,0C1.5,0.829,0.829,1.5,0,1.5C-0.829,1.5,-1.5,0.829,-1.5,0C-1.5,-0.829,-0.829,-1.5,0,-1.5Z" /></g><g id="Group 40" transform="matrix(1,0,0,1,100.639,105.688)"><path fill="#8066FF" fill-opacity="1" d="M0,-1.5C0.829,-1.5,1.5,-0.829,1.5,0C1.5,0.828,0.829,1.5,0,1.5C-0.828,1.5,-1.5,0.828,-1.5,0C-1.5,-0.829,-0.828,-1.5,0,-1.5Z" /></g><g id="Group 39" transform="matrix(1,0,0,1,87.195,112.021)"><path fill="#8066FF" fill-opacity="1" d="M0,-1.5C0.829,-1.5,1.5,-0.828,1.5,0C1.5,0.829,0.829,1.5,0,1.5C-0.829,1.5,-1.5,0.829,-1.5,0C-1.5,-0.828,-0.829,-1.5,0,-1.5Z" /></g><g id="Group 38" transform="matrix(1,0,0,1,101.083,111.355)"><path fill="#8066FF" fill-opacity="1" d="M0,-1.5C0.829,-1.5,1.5,-0.829,1.5,0C1.5,0.829,0.829,1.5,0,1.5C-0.828,1.5,-1.5,0.829,-1.5,0C-1.5,-0.829,-0.828,-1.5,0,-1.5Z" /></g><g id="Group 37" transform="matrix(1,0,0,1,95.195,118.354)"><path fill="#8066FF" fill-opacity="1" d="M0,-1.5C0.829,-1.5,1.5,-0.828,1.5,0C1.5,0.829,0.829,1.5,0,1.5C-0.829,1.5,-1.5,0.829,-1.5,0C-1.5,-0.828,-0.829,-1.5,0,-1.5Z" /></g><g id="Group 36" transform="matrix(1,0,0,1,96.602,124.947)"><path fill="#8066FF" fill-opacity="1" d="M0,-1.5C0.829,-1.5,1.5,-0.828,1.5,0C1.5,0.829,0.829,1.5,0,1.5C-0.828,1.5,-1.5,0.829,-1.5,0C-1.5,-0.828,-0.828,-1.5,0,-1.5Z" /></g><g id="Group 35" transform="matrix(1,0,0,1,88.195,118.466)"><path fill="#8066FF" fill-opacity="1" d="M0,-1.5C0.829,-1.5,1.5,-0.828,1.5,0C1.5,0.829,0.829,1.5,0,1.5C-0.829,1.5,-1.5,0.829,-1.5,0C-1.5,-0.828,-0.829,-1.5,0,-1.5Z" /></g><g id="Group 34" transform="matrix(1,0,0,1,81.972,121.91)"><path fill="#8066FF" fill-opacity="1" d="M0,-1.5C0.829,-1.5,1.5,-0.828,1.5,0C1.5,0.829,0.829,1.5,0,1.5C-0.829,1.5,-1.5,0.829,-1.5,0C-1.5,-0.828,-0.829,-1.5,0,-1.5Z" /></g><g id="Group 33" transform="matrix(1,0,0,1,88.861,124.354)"><path fill="#8066FF" fill-opacity="1" d="M0,-1.5C0.829,-1.5,1.5,-0.828,1.5,0C1.5,0.829,0.829,1.5,0,1.5C-0.828,1.5,-1.5,0.829,-1.5,0C-1.5,-0.828,-0.828,-1.5,0,-1.5Z" /></g><g id="Group 32" transform="matrix(1,0,0,1,102.195,117.91)"><path fill="#8066FF" fill-opacity="1" d="M0,-1.5C0.829,-1.5,1.5,-0.828,1.5,0C1.5,0.829,0.829,1.5,0,1.5C-0.829,1.5,-1.5,0.829,-1.5,0C-1.5,-0.828,-0.829,-1.5,0,-1.5Z" /></g><g id="Group 31" transform="matrix(1,0,0,1,158.195,175.577)"><path fill="#5F3FE8" fill-opacity="1" d="M0,-1.5C0.828,-1.5,1.5,-0.828,1.5,0C1.5,0.828,0.828,1.5,0,1.5C-0.828,1.5,-1.5,0.828,-1.5,0C-1.5,-0.828,-0.828,-1.5,0,-1.5Z" /></g><g id="Group 30" transform="matrix(1,0,0,1,157.158,187.577)"><path fill="#5F3FE8" fill-opacity="1" d="M0,-1.5C0.828,-1.5,1.5,-0.828,1.5,0C1.5,0.828,0.828,1.5,0,1.5C-0.828,1.5,-1.5,0.828,-1.5,0C-1.5,-0.828,-0.828,-1.5,0,-1.5Z" /></g><g id="Group 29" transform="matrix(1,0,0,1,164.25,188.54)"><path fill="#5F3FE8" fill-opacity="1" d="M0,-1.5C0.828,-1.5,1.5,-0.828,1.5,0C1.5,0.828,0.828,1.5,0,1.5C-0.828,1.5,-1.5,0.828,-1.5,0C-1.5,-0.828,-0.828,-1.5,0,-1.5Z" /></g><g id="Group 28" transform="matrix(1,0,0,1,159.213,193.873)"><path fill="#5F3FE8" fill-opacity="1" d="M0,-1.5C0.828,-1.5,1.5,-0.828,1.5,0C1.5,0.829,0.828,1.5,0,1.5C-0.828,1.5,-1.5,0.829,-1.5,0C-1.5,-0.828,-0.828,-1.5,0,-1.5Z" /></g><g id="Group 27" transform="matrix(1,0,0,1,166.176,195.651)"><path fill="#5F3FE8" fill-opacity="1" d="M0,-1.5C0.828,-1.5,1.5,-0.828,1.5,0C1.5,0.828,0.828,1.5,0,1.5C-0.828,1.5,-1.5,0.828,-1.5,0C-1.5,-0.828,-0.828,-1.5,0,-1.5Z" /></g><g id="Group 26" transform="matrix(1,0,0,1,168.399,182.466)"><path fill="#5F3FE8" fill-opacity="1" d="M0,-1.5C0.828,-1.5,1.5,-0.828,1.5,0C1.5,0.829,0.828,1.5,0,1.5C-0.829,1.5,-1.5,0.829,-1.5,0C-1.5,-0.828,-0.829,-1.5,0,-1.5Z" /></g><g id="Group 25" transform="matrix(1,0,0,1,171.065,189.725)"><path fill="#5F3FE8" fill-opacity="1" d="M0,-1.5C0.829,-1.5,1.5,-0.829,1.5,0C1.5,0.828,0.829,1.5,0,1.5C-0.828,1.5,-1.5,0.828,-1.5,0C-1.5,-0.829,-0.828,-1.5,0,-1.5Z" /></g><g id="Group 24" transform="matrix(1,0,0,1,160.695,200.244)"><path fill="#5F3FE8" fill-opacity="1" d="M0,-1.5C0.828,-1.5,1.5,-0.829,1.5,0C1.5,0.828,0.828,1.5,0,1.5C-0.828,1.5,-1.5,0.828,-1.5,0C-1.5,-0.829,-0.828,-1.5,0,-1.5Z" /></g><g id="Group 23" transform="matrix(1,0,0,1,164.99,204.244)"><path fill="#5F3FE8" fill-opacity="1" d="M0,-1.5C0.829,-1.5,1.5,-0.829,1.5,0C1.5,0.828,0.829,1.5,0,1.5C-0.828,1.5,-1.5,0.828,-1.5,0C-1.5,-0.829,-0.828,-1.5,0,-1.5Z" /></g><g id="Group 22" transform="matrix(1,0,0,1,168.99,200.391)"><path fill="#5F3FE8" fill-opacity="1" d="M0,-1.5C0.829,-1.5,1.5,-0.828,1.5,0C1.5,0.829,0.829,1.5,0,1.5C-0.828,1.5,-1.5,0.829,-1.5,0C-1.5,-0.828,-0.828,-1.5,0,-1.5Z" /></g><g id="Group 21" transform="matrix(1,0,0,1,153.732,198.91)"><path fill="#5F3FE8" fill-opacity="1" d="M0,-1.5C0.828,-1.5,1.5,-0.828,1.5,0C1.5,0.829,0.828,1.5,0,1.5C-0.828,1.5,-1.5,0.829,-1.5,0C-1.5,-0.828,-0.828,-1.5,0,-1.5Z" /></g><g id="Group 20" transform="matrix(1,0,0,1,152.546,192.244)"><path fill="#5F3FE8" fill-opacity="1" d="M0,-1.5C0.829,-1.5,1.5,-0.829,1.5,0C1.5,0.828,0.829,1.5,0,1.5C-0.828,1.5,-1.5,0.828,-1.5,0C-1.5,-0.829,-0.828,-1.5,0,-1.5Z" /></g><g id="Group 19" transform="matrix(1,0,0,1,150.324,185.725)"><path fill="#5F3FE8" fill-opacity="1" d="M0,-1.5C0.828,-1.5,1.5,-0.829,1.5,0C1.5,0.828,0.828,1.5,0,1.5C-0.829,1.5,-1.5,0.828,-1.5,0C-1.5,-0.829,-0.829,-1.5,0,-1.5Z" /></g><g id="Group 18" transform="matrix(1,0,0,1,147.509,179.8)"><path fill="#5F3FE8" fill-opacity="1" d="M0,-1.5C0.829,-1.5,1.5,-0.829,1.5,0C1.5,0.828,0.829,1.5,0,1.5C-0.828,1.5,-1.5,0.828,-1.5,0C-1.5,-0.829,-0.828,-1.5,0,-1.5Z" /></g><g id="Group 17" transform="matrix(1,0,0,1,155.658,205.133)"><path fill="#5F3FE8" fill-opacity="1" d="M0,-1.5C0.828,-1.5,1.5,-0.828,1.5,0C1.5,0.828,0.828,1.5,0,1.5C-0.828,1.5,-1.5,0.828,-1.5,0C-1.5,-0.828,-0.828,-1.5,0,-1.5Z" /></g><g id="Group 16" transform="matrix(1,0,0,1,159.806,209.429)"><path fill="#5F3FE8" fill-opacity="1" d="M0,-1.5C0.828,-1.5,1.5,-0.828,1.5,0C1.5,0.829,0.828,1.5,0,1.5C-0.829,1.5,-1.5,0.829,-1.5,0C-1.5,-0.828,-0.829,-1.5,0,-1.5Z" /></g><g id="Group 15" transform="matrix(1,0,0,1,167.213,208.54)"><path fill="#5F3FE8" fill-opacity="1" d="M0,-1.5C0.828,-1.5,1.5,-0.828,1.5,0C1.5,0.828,0.828,1.5,0,1.5C-0.828,1.5,-1.5,0.828,-1.5,0C-1.5,-0.828,-0.828,-1.5,0,-1.5Z" /></g><g id="Group 14" transform="matrix(1,0,0,1,161.195,181.577)"><path fill="#5F3FE8" fill-opacity="1" d="M0,-1.5C0.828,-1.5,1.5,-0.828,1.5,0C1.5,0.828,0.828,1.5,0,1.5C-0.828,1.5,-1.5,0.828,-1.5,0C-1.5,-0.828,-0.828,-1.5,0,-1.5Z" /></g><g id="Group 13" transform="matrix(1,0,0,1,155.195,181.577)"><path fill="#5F3FE8" fill-opacity="1" d="M0,-1.5C0.828,-1.5,1.5,-0.828,1.5,0C1.5,0.828,0.828,1.5,0,1.5C-0.828,1.5,-1.5,0.828,-1.5,0C-1.5,-0.828,-0.828,-1.5,0,-1.5Z" /></g><g id="Group 12" transform="matrix(1,0,0,1,152.195,175.577)"><path fill="#5F3FE8" fill-opacity="1" d="M0,-1.5C0.828,-1.5,1.5,-0.828,1.5,0C1.5,0.828,0.828,1.5,0,1.5C-0.828,1.5,-1.5,0.828,-1.5,0C-1.5,-0.828,-0.828,-1.5,0,-1.5Z" /></g><g id="Group 11" transform="matrix(1,0,0,1,247.148,69.02)"><path fill="#F45BD4" fill-opacity="1" d="M-28.076,-17.131L-0.798,-32.881C1.714,-34.331,4.924,-33.471,6.374,-30.96L30,9.96C31.449,12.471,30.59,15.682,28.078,17.132L0.799,32.882C-1.713,34.331,-4.924,33.471,-6.373,30.96L-29.998,-9.96C-31.448,-12.471,-30.588,-15.681,-28.076,-17.131Z" /></g><g id="Group 10" transform="matrix(1,0,0,1,247.164,69.047)"><path fill="#ffffff" fill-opacity="1" d="M-24.163,-15.602L-1.431,-28.727C1.08,-30.177,4.291,-29.316,5.74,-26.806L26.085,8.431C27.535,10.942,26.674,14.153,24.163,15.603L1.43,28.728C-1.081,30.177,-4.292,29.317,-5.742,26.806L-26.086,-8.431C-27.535,-10.941,-26.674,-14.152,-24.163,-15.602Z" /></g><g id="Group 8" transform="matrix(1,0,0,1,234.225,45.842)"><path fill="#C75CF2" fill-opacity="1" d="M-12.142,3.907C-12.504,3.279,-12.289,2.476,-11.662,2.114L7.662,-9.042C8.29,-9.405,9.092,-9.19,9.455,-8.562L12.142,-3.907C12.504,-3.279,12.29,-2.476,11.662,-2.114L7.399,0.347C6.847,-0.61,5.624,-0.937,4.668,-0.385L-2.666,3.849C-3.623,4.402,-3.952,5.625,-3.399,6.581L-7.662,9.042C-8.289,9.405,-9.091,9.19,-9.454,8.562L-12.142,3.907Z" /></g><g id="Group 7" transform="matrix(1,0,0,1,235.567,59.462)"><path stroke-linejoin="miter" stroke-linecap="butt" stroke-width="1.313" stroke-opacity="1" stroke="#E9E3FF" d="M-5.683,3.281L5.683,-3.281" /></g><g id="Group 6" transform="matrix(1,0,0,1,242.651,59.918)"><path stroke-linejoin="miter" stroke-linecap="butt" stroke-width="1.313" stroke-opacity="1" stroke="#E9E3FF" d="M-10.798,6.234L10.798,-6.234" /></g><g id="Group 5" transform="matrix(1,0,0,1,244.62,63.328)"><path stroke-linejoin="miter" stroke-linecap="butt" stroke-width="1.313" stroke-opacity="1" stroke="#E9E3FF" d="M-10.798,6.234L10.798,-6.234" /></g><g id="Group 4" transform="matrix(1,0,0,1,246.589,66.738)"><path stroke-linejoin="miter" stroke-linecap="butt" stroke-width="1.313" stroke-opacity="1" stroke="#E9E3FF" d="M-10.798,6.234L10.798,-6.234" /></g><g id="Group 3" transform="matrix(1,0,0,1,206.573,18.003)"><path fill="#EFEAFF" fill-opacity="1" d="M8.157,-15.809C-10.655,-21.246,-32.624,-16.488,-52.443,-2.547L-51.414,-1.086C-31.928,-14.793,-10.513,-19.344,7.661,-14.092L8.157,-15.809ZM-52.443,-2.547C-53.249,-1.98,-53.444,-0.865,-52.875,-0.058L-51.414,-1.086L-52.443,-2.547ZM-52.875,-0.058C-52.307,0.749,-51.194,0.943,-50.385,0.376L-51.414,-1.086L-52.875,-0.058ZM-50.385,0.376C-31.232,-13.098,-10.371,-17.443,7.165,-12.375L7.661,-14.092C-10.513,-19.344,-31.928,-14.793,-51.414,-1.086L-50.385,0.376ZM7.165,-12.375C14.305,-10.312,21.717,-6.246,29.075,-0.928L30.122,-2.376C22.668,-7.763,15.069,-11.952,7.661,-14.092L7.165,-12.375ZM29.075,-0.928C29.875,-0.35,30.992,-0.53,31.57,-1.33L30.122,-2.376L29.075,-0.928ZM31.57,-1.33C32.148,-2.13,31.969,-3.246,31.169,-3.825L30.122,-2.376L31.57,-1.33ZM31.169,-3.825C23.619,-9.28,15.832,-13.591,8.157,-15.809L7.661,-14.092C15.069,-11.952,22.668,-7.763,30.122,-2.376L31.169,-3.825ZM36.893,2.85C36.258,3.604,36.354,4.732,37.109,5.367L38.26,4.001L36.893,2.85ZM37.109,5.367C38.446,6.493,39.774,7.649,41.092,8.832L42.285,7.501C40.954,6.308,39.612,5.139,38.26,4.001L37.109,5.367ZM41.092,8.832C41.827,9.49,42.957,9.429,43.616,8.694L42.285,7.501L41.092,8.832ZM43.616,8.694C44.274,7.959,44.213,6.829,43.478,6.17L42.285,7.501L43.616,8.694ZM43.478,6.17C42.134,4.965,40.778,3.785,39.411,2.634L38.26,4.001C39.612,5.139,40.954,6.308,42.285,7.501L43.478,6.17ZM39.411,2.634C38.656,1.998,37.529,2.095,36.893,2.85L38.26,4.001L39.411,2.634ZM45.212,10.17C44.532,10.886,44.559,12.017,45.275,12.697L46.507,11.402L45.212,10.17ZM45.275,12.697C46.92,14.261,48.544,15.857,50.143,17.473L51.413,16.216C49.803,14.587,48.166,12.979,46.507,11.402L45.275,12.697ZM50.143,17.473C50.837,18.174,51.968,18.181,52.67,17.486L51.413,16.216L50.143,17.473ZM52.67,17.486C53.372,16.793,53.378,15.661,52.684,14.96L51.413,16.216L52.67,17.486ZM52.684,14.96C51.061,13.319,49.411,11.698,47.738,10.107L46.507,11.402C48.166,12.979,49.803,14.587,51.413,16.216L52.684,14.96ZM47.738,10.107C47.023,9.427,45.891,9.455,45.212,10.17L46.507,11.402L47.738,10.107ZM-51.928,-1.817L-52.443,-2.547L-51.928,-1.817ZM-52.144,-0.572L-51.414,-1.086L-52.144,-0.572ZM-50.9,-0.355L-50.385,0.376L-50.9,-0.355ZM7.413,-13.234L7.661,-14.092L7.413,-13.234ZM29.598,-1.652L29.075,-0.928L29.598,-1.652ZM30.845,-1.853L30.122,-2.376L30.845,-1.853ZM7.909,-14.951L8.157,-15.809L7.909,-14.951ZM30.645,-3.101L30.122,-2.376L30.645,-3.101ZM37.684,4.684L38.26,4.001L37.684,4.684ZM41.689,8.166L42.285,7.501L41.689,8.166ZM42.95,8.098L42.285,7.501L42.95,8.098ZM42.882,6.836L43.478,6.17L42.882,6.836ZM37.577,3.425L36.893,2.85L37.577,3.425ZM38.836,3.317L39.411,2.634L38.836,3.317ZM45.89,12.049L45.275,12.697L45.89,12.049ZM50.778,16.844L50.143,17.473L50.778,16.844ZM52.049,15.587L52.684,14.96L52.049,15.587ZM45.859,10.786L46.507,11.402L45.859,10.786ZM47.122,10.754L46.507,11.402L47.122,10.754Z" /></g><g id="Group 2" transform="matrix(1,0,0,1,168.417,171.354)"><path fill="#5F3FE8" fill-opacity="1" d="M0,-1.5C0.828,-1.5,1.5,-0.828,1.5,0C1.5,0.829,0.828,1.5,0,1.5C-0.829,1.5,-1.5,0.829,-1.5,0C-1.5,-0.828,-0.829,-1.5,0,-1.5Z" /></g><g id="Group 1" transform="matrix(1,0,0,1,172.083,177.133)"><path fill="#5F3FE8" fill-opacity="1" d="M0,-1.5C0.829,-1.5,1.5,-0.828,1.5,0C1.5,0.828,0.829,1.5,0,1.5C-0.828,1.5,-1.5,0.828,-1.5,0C-1.5,-0.828,-0.828,-1.5,0,-1.5Z" /></g></g><g transform="matrix(1,0,0,1,0,-1.6)" id="Layer 2 Outlines Comp 1"><use clip-path="url(#cp-300-274)" height="274" width="300" y="0" x="0" xlink:href="#comp_0" href="#comp_0"><animateTransform attributeName="transform" type="rotate" additive="sum" dur="2.4s" values="0 176 96;-2 176 96;1.5 176 96;0 176 96" keyTimes="0;0.35;0.7;1" repeatCount="indefinite"/></use></g><g opacity="0" id="Layer 3 Outlines"><animate repeatCount="indefinite" attributeName="opacity" dur="4s" begin="0s" calcMode="spline" values="0; 0; 1; 1; 0" keyTimes="0; 0.18; 0.36; 0.78; 1" keySplines="0.333 0 0.667 1; 0.333 0 0.667 1; 0.333 0 0.667 1; 0.333 0 0.667 1" /><g transform="translate(98.981,92.574)"><animateTransform repeatCount="indefinite" type="translate" attributeName="transform" dur="4s" begin="0s" calcMode="spline" values="98.981 92.574; 98.981 92.574; 84.981 44.574; 84.981 44.574; 98.981 92.574" keyTimes="0; 0.18; 0.36; 0.78; 1" keySplines="0.333 0 0.667 1; 0.333 0 0.667 1; 0.333 0 0.667 1; 0.333 0 0.667 1" /><g transform="scale(1,1) translate(-12.011,-21.148)"><g id="Group 2" transform="matrix(1,0,0,1,13.488,21.199)"><path fill="#F45BD4" fill-opacity="1" d="M7.811,10.465L10.285,18.289L2.195,20.848L-0.739,20.551L-0.28,13.024L4.762,10.551L7.811,10.465ZM-2.035,-20.848L5.424,6.068L-0.91,8.07L-3.739,8.07L-10.285,-18.239L-5.239,-20.848L-2.035,-20.848Z" /></g><g id="Group 1" transform="matrix(1,0,0,1,10.535,21.098)"><path fill="#D96BF0" fill-opacity="1" d="M7.81,10.465L10.285,18.289L2.193,20.848L-0.281,13.024L7.81,10.465ZM-2.035,-20.848L5.424,6.068L-0.911,8.07L-10.285,-18.239L-2.035,-20.848Z" /></g></g></g></g></svg>


